<?xml version="1.0" encoding="UTF-8" standalone="no"?>
<!-- Created with Inkscape (http://www.inkscape.org/) -->

<svg
   xmlns:dc="http://purl.org/dc/elements/1.1/"
   xmlns:cc="http://creativecommons.org/ns#"
   xmlns:rdf="http://www.w3.org/1999/02/22-rdf-syntax-ns#"
   xmlns:svg="http://www.w3.org/2000/svg"
   xmlns="http://www.w3.org/2000/svg"
   xmlns:sodipodi="http://sodipodi.sourceforge.net/DTD/sodipodi-0.dtd"
   xmlns:inkscape="http://www.inkscape.org/namespaces/inkscape"
   width="170.02795"
   height="105.30938"
   id="svg3573"
   version="1.1"
   inkscape:version="0.48.4 r9939"
   sodipodi:docname="sulong_red_with_text_transparent.svg">
  <defs
     id="defs3575" />
  <sodipodi:namedview
     id="base"
     pagecolor="#ffffff"
     bordercolor="#666666"
     borderopacity="1.0"
     inkscape:pageopacity="0.0"
     inkscape:pageshadow="2"
     inkscape:zoom="7.9195959"
     inkscape:cx="97.848974"
     inkscape:cy="45.071101"
     inkscape:document-units="px"
     inkscape:current-layer="layer1"
     showgrid="false"
     inkscape:window-width="1855"
     inkscape:window-height="1056"
     inkscape:window-x="65"
     inkscape:window-y="24"
     inkscape:window-maximized="1"
     fit-margin-top="10"
     fit-margin-left="10"
     fit-margin-right="10"
     fit-margin-bottom="10" />
  <metadata
     id="metadata3578">
    <rdf:RDF>
      <cc:Work
         rdf:about="">
        <dc:format>image/svg+xml</dc:format>
        <dc:type
           rdf:resource="http://purl.org/dc/dcmitype/StillImage" />
        <dc:title></dc:title>
      </cc:Work>
    </rdf:RDF>
  </metadata>
  <g
     inkscape:label="Layer 1"
     inkscape:groupmode="layer"
     id="layer1"
     transform="translate(-289.98603,-479.70754)">
    <path
       inkscape:connector-curvature="0"
       d="m 440.90161,550.80617 c -1.58375,0.0675 -3.0675,0.075 -4.54125,0.20875 -1.90875,0.17375 -3.3725,1.125 -4.2725,2.835 -0.46625,0.88625 -0.90625,1.79875 -1.2275,2.74375 -0.64875,1.905 -1.1725,3.84375 -1.3325,5.86875 -0.12625,1.6 0.34125,2.455 1.795,2.65375 1.1175,0.15375 2.2725,0.12 3.40375,0.0488 0.5825,-0.0375 1.1925,-0.2575 1.71125,-0.54125 1.01875,-0.555 1.335,-1.6175 1.6125,-2.645 0.53125,-1.9775 1.01,-3.96875 1.51375,-5.95375 0.43,-1.69 0.86625,-3.37875 1.3375,-5.21875 m -3.725,14.51375 c -0.51125,0.63625 -1.025,1.27 -1.5325,1.9075 -0.46,0.57875 -1.0575,0.94375 -1.7875,1.0025 -1.51875,0.12 -3.03375,0.1575 -4.54,-0.19375 -2.12125,-0.495 -3.125,-1.63375 -3.285,-3.78625 -0.1625,-2.185 0.36375,-4.26875 0.94125,-6.3375 0.64875,-2.3275 1.38875,-4.6275 2.8825,-6.585 1.56625,-2.05125 3.64875,-3.1925 6.23125,-3.305 2.15,-0.0937 4.30375,-0.095 6.455,-0.12625 0.32125,-0.005 0.65,0.0125 0.9625,0.0788 1.07625,0.22875 1.37625,0.7375 1.1075,1.815 -1.6525,6.61125 -3.30125,13.2225 -4.96125,19.83125 -0.13375,0.5325 -0.33,1.05 -0.525,1.5625 -0.7725,2.03875 -2.19,3.3 -4.395,3.5625 -2.9425,0.35 -5.89,0.36375 -8.8325,0.0225 -1.2175,-0.14 -1.60125,-0.78625 -1.305,-1.95 0.155,-0.6075 0.29625,-1.2175 0.45,-1.825 0.0825,-0.32125 0.35625,-0.52375 0.5375,-0.2075 0.41125,0.71875 1.07375,0.9 1.77625,0.95375 2.2025,0.17125 4.41,0.26 6.5975,-0.16125 1.1275,-0.2175 1.87375,-0.9025 2.18625,-2.0075 0.39375,-1.39875 0.7525,-2.8075 1.12625,-4.2125 -0.03,-0.0125 -0.06,-0.0263 -0.09,-0.0387"
       style="fill:#e73c35;fill-opacity:1;fill-rule:nonzero;stroke:none"
       id="path194" />
    <path
       inkscape:connector-curvature="0"
       d="m 396.89285,566.14229 c 0.002,-0.0263 0.006,-0.0512 0.009,-0.0775 0.22875,0 0.4575,0.005 0.685,-10e-4 2.03875,-0.0462 3.4725,-0.95875 4.15125,-2.92625 0.4325,-1.25375 0.90375,-2.49875 1.245,-3.77875 0.4825,-1.81125 0.915,-3.64 1.27,-5.48 0.32875,-1.71125 -0.42875,-2.84125 -2.13125,-3.055 -1.1325,-0.14125 -2.3225,-0.0962 -3.45125,0.0875 -1.24625,0.2025 -2.2425,0.9325 -2.75125,2.16 -1.3475,3.2525 -2.34,6.6125 -2.89,10.09125 -0.2275,1.44125 0.4125,2.33375 1.8425,2.68125 0.65875,0.16 1.34625,0.2025 2.02125,0.29875 m 4.08995,-18.7138 c 1.195,0.19 2.41375,0.28875 3.58125,0.58875 2.135,0.54875 3.37875,2.12625 3.265,4.34125 -0.0862,1.675 -0.40625,3.3525 -0.77125,4.995 -0.5425,2.4425 -1.2025,4.86125 -2.26125,7.14625 -1.12375,2.425 -2.90375,4.065 -5.57625,4.5925 -2.2325,0.44 -4.4675,0.48375 -6.64,-0.295 -1.9175,-0.68875 -2.9,-2.10125 -3.0175,-4.1425 -0.10625,-1.87625 0.36625,-3.65625 0.80875,-5.44625 0.6625,-2.6775 1.5325,-5.275 2.81625,-7.73 1.22875,-2.355 3.21875,-3.5025 5.78125,-3.7925 0.66125,-0.0738 1.3275,-0.10375 1.99125,-0.155 0.007,-0.0337 0.015,-0.0687 0.0225,-0.1025"
       style="fill:#e73c35;fill-opacity:1;fill-rule:nonzero;stroke:none"
       id="path198" />
    <path
       inkscape:connector-curvature="0"
       d="m 410.05561,548.3768 c -0.03,-0.36375 0.13,-0.49875 0.5,-0.49125 1.02875,0.02 2.0575,-0.002 3.08625,0.0163 1.175,0.02 1.53375,0.5025 1.26125,1.64375 -0.055,0.2325 -0.105,0.4675 -0.1675,0.74875 0.37125,-0.3525 0.7325,-0.6375 1.02125,-0.9825 0.8775,-1.04625 1.95,-1.70875 3.34125,-1.69375 1.36375,0.0137 2.7525,-0.055 4.08375,0.18125 2.185,0.3875 3.14375,1.87875 2.68125,4.04125 -0.5425,2.5425 -1.195,5.0625 -1.81375,7.5875 -0.57,2.32125 -1.16375,4.63625 -1.73625,6.9575 -0.31,1.25625 -0.095,1.67625 1.09125,2.1775 -0.0475,0.1525 -0.095,0.30875 -0.1475,0.48125 -1.18,0 -2.3425,0.0337 -3.50125,-0.009 -1.1325,-0.0425 -1.45875,-0.4975 -1.18375,-1.60375 1.0825,-4.365 2.185,-8.725 3.2675,-13.09 0.12875,-0.515 0.205,-1.045 0.26875,-1.5725 0.13125,-1.08375 -0.30875,-1.7825 -1.3925,-1.88875 -1.16,-0.1125 -2.355,-0.13875 -3.5075,0.01 -1.69125,0.21875 -2.83875,1.2375 -3.3,2.90375 -0.6275,2.2675 -1.21625,4.545 -1.79625,6.825 -0.4925,1.93 -0.94875,3.87 -1.42125,5.805 -0.009,0.0375 -0.0238,0.0725 -0.0312,0.11 -0.23125,1.195 -0.0363,1.5625 1.08125,2.02375 0.015,0.38 -0.1575,0.51125 -0.54625,0.50125 -0.99,-0.0237 -1.98125,0 -2.97125,-0.01 -1.145,-0.0125 -1.57,-0.53875 -1.30125,-1.6325 1.35625,-5.51 2.72125,-11.0175 4.0825,-16.525 0.0325,-0.13 0.0625,-0.25875 0.09,-0.38875 0.28,-1.3 0.1275,-1.6125 -1.03875,-2.12625"
       style="fill:#e73c35;fill-opacity:1;fill-rule:nonzero;stroke:none"
       id="path202" />
    <path
       inkscape:connector-curvature="0"
       d="m 379.15485,548.40192 c -0.0462,-0.41375 0.12125,-0.5275 0.49,-0.51875 1.02875,0.025 2.0575,-0.002 3.08625,0.0188 1.07125,0.0225 1.46,0.4325 1.2325,1.45625 -0.47,2.11 -1.00875,4.205 -1.53,6.30375 -0.86875,3.5 -1.745,6.99625 -2.61625,10.495 -0.0412,0.16625 -0.0687,0.335 -0.0925,0.50375 -0.175,1.215 -0.04,1.45 1.08125,1.885 0.006,0.3775 -0.155,0.52625 -0.5525,0.515 -0.9325,-0.0275 -1.86625,-0.004 -2.8,-0.0112 -1.32875,-0.01 -1.715,-0.50875 -1.40125,-1.7925 0.04,-0.165 0.0675,-0.3325 0.006,-0.5975 -0.14125,0.17375 -0.29875,0.33875 -0.42125,0.525 -1.0175,1.5325 -2.50625,2.13625 -4.28,2.1925 -1.3125,0.0412 -2.63375,0.10625 -3.88125,-0.40875 -1.90125,-0.78625 -2.78,-2.4225 -2.29375,-4.49125 0.825,-3.50875 1.73625,-6.99875 2.59875,-10.49875 0.3175,-1.29 0.62375,-2.5825 0.88625,-3.88375 0.2,-0.99375 -0.0563,-1.35375 -1.09875,-1.6875 0.0263,-0.1525 0.0537,-0.31375 0.085,-0.5025 1.23375,0 2.4525,-0.0337 3.66875,0.0113 0.92125,0.035 1.27,0.59125 1.0375,1.5425 -0.715,2.91 -1.44,5.8175 -2.1575,8.7275 -0.45,1.825 -0.89875,3.64875 -1.3375,5.47625 -0.32,1.335 0.19,2.1425 1.555,2.3825 1.1925,0.20875 2.385,0.15125 3.56375,-0.16 1.865,-0.49125 2.765,-1.88875 3.23375,-3.585 0.77875,-2.8175 1.46375,-5.66125 2.17625,-8.49625 0.29625,-1.17875 0.5925,-2.35875 0.835,-3.54875 0.23,-1.1275 0.002,-1.47375 -1.07375,-1.8525"
       style="fill:#e73c35;fill-opacity:1;fill-rule:nonzero;stroke:none"
       id="path206" />
    <path
       inkscape:connector-curvature="0"
       d="m 348.60098,564.51917 c 0.1,0.735 0.65875,1.02625 1.32125,1.04625 2.10875,0.0612 4.2225,0.1375 6.33,0.0775 2.055,-0.0588 3.28375,-1.26 3.74125,-3.22 0.2575,-1.1025 0.505,-2.22875 0.55625,-3.3525 0.0612,-1.35375 -0.5325,-2.04625 -1.81875,-2.48625 -1.59625,-0.545 -3.21375,-1.03625 -4.79375,-1.625 -1.2925,-0.48125 -2.42625,-1.215 -2.94125,-2.59375 -0.38375,-1.025 -0.35,-2.085 -0.1875,-3.1525 0.245,-1.61125 0.66,-3.15875 1.59375,-4.525 1.08875,-1.59375 2.6025,-2.5175 4.52125,-2.61125 2.45125,-0.11875 4.90875,-0.1225 7.36375,-0.17125 0.10875,-0.003 0.2175,0.0337 0.36125,0.0575 -0.155,0.59375 -0.30125,1.16125 -0.45,1.7275 -0.29375,1.11375 -0.545,1.3225 -1.70875,1.33875 -1.21875,0.0175 -2.43875,-0.005 -3.6575,0.015 -0.58875,0.01 -1.18,0.05 -1.76375,0.12375 -1.4725,0.18625 -2.20625,1.1925 -2.5525,2.5 -0.21125,0.80125 -0.28875,1.64625 -0.34875,2.47625 -0.0563,0.79375 0.39375,1.355 1.10125,1.64 1.035,0.4175 2.0975,0.77 3.15,1.14375 0.75,0.26625 1.505,0.52125 2.25625,0.78375 2.17625,0.76 3.3975,2.295 3.45625,4.5925 0.0812,3.20875 -0.67875,6.1825 -2.88625,8.6425 -1.205,1.34375 -2.81125,1.89125 -4.5375,1.96875 -2.58625,0.115 -5.1775,0.095 -7.76625,0.13125 -0.0763,0.001 -0.1525,-0.005 -0.22875,-0.0125 -1.33,-0.12625 -1.68875,-0.62875 -1.38,-1.94 0.165,-0.7025 0.36625,-1.3975 0.4975,-2.105 0.085,-0.455 0.26875,-0.64 0.77125,-0.47"
       style="fill:#e73c35;fill-opacity:1;fill-rule:nonzero;stroke:none"
       id="path210" />
    <path
       inkscape:connector-curvature="0"
       d="m 386.9106,542.31467 c 0.26875,-0.1825 0.43625,-0.39375 0.6075,-0.39625 1.10375,-0.0213 2.21,-0.0287 3.3125,0.0225 1.0325,0.0475 1.3375,0.5 1.08625,1.51 -1.67875,6.75875 -3.36125,13.51625 -5.04125,20.275 -0.22,0.88375 -0.44125,1.76875 -0.6525,2.655 -0.30625,1.2875 -0.11625,1.675 1.05125,2.185 -0.001,0.33375 -0.125,0.5 -0.50375,0.4925 -1.0475,-0.0213 -2.09625,0.005 -3.14375,-0.0125 -1.0625,-0.0188 -1.43125,-0.5125 -1.175,-1.5475 1.855,-7.4975 3.7125,-14.995 5.56875,-22.4925 0.0412,-0.165 0.0713,-0.33375 0.10625,-0.50125 0.27,-1.305 0.145,-1.56375 -1.21625,-2.19"
       style="fill:#e73c35;fill-opacity:1;fill-rule:nonzero;stroke:none"
       id="path214" />
    <path
       inkscape:connector-curvature="0"
       d="m 349.32023,550.74004 c 0.275,-8.74375 6.6425,-10.35875 6.6425,-10.35875 0,0 -6.1925,-0.82625 -7.225,-6.54125 -1.03375,-5.715 5.0325,-11.3675 12.66875,-15.435 8.0225,-4.27125 36.94375,-12.23 44.42375,-13.99375 2.9875,-0.70375 15.37875,-3.525 23.3625,-4.37625 10.33,-1.1025 20.82125,-1.79 20.82125,-1.79 0,0 -10.465,0.4125 -21.27375,1.44625 -10.81,1.0325 -24.07625,3.82875 -28.2075,4.58625 -4.13,0.7575 -26.66625,5.87875 -29.5575,6.4975 -2.89125,0.62 -6.81625,1.1025 -10.465,0.345 -3.64875,-0.7575 -11.14,-4.5075 -14.92625,-4.7825 -3.78625,-0.275 -5.7975,0.51375 -10.61625,1.615 -4.82,1.10125 -6.5025,-0.34 -8.19375,-2.41 -1.3275,-1.625 -2.34,-7.98625 -3.7175,-11.29125 -1.3775,-3.30375 -4.40625,-4.54375 -7.0225,-4.54375 -2.61625,0 -6.92875,2.48375 -9.65875,4.275 -1.5125,0.99125 -3.54625,2.48125 -5.48875,3.965 -1.795,1.37125 -0.7925,4.9825 1.9975,4.56625 2.96625,-0.4425 10.97125,-2.05625 12.03,-2.4775 1.1,-0.4375 0.36625,-1.89 0.36625,-1.89 0,0 0.0375,0.8225 -1.41125,1.26 -1.715,0.5175 -2.56625,-2.82125 -0.75125,-4.22625 2.7325,-2.115 5.0775,0.735 6.03,3.67125 0.95125,2.935 1.8925,11.7175 4.91875,14.995 4.4,4.765 23.42125,7.75375 23.56125,17.76875 0.17375,12.5525 1.6925,19.125 1.6925,19.125"
       style="fill:#e73c35;fill-opacity:1;fill-rule:nonzero;stroke:none"
       id="path218" />
    <path
       id="path3619"
       style="fill:#e73c35;fill-opacity:1;fill-rule:nonzero;stroke:none"
       d="m 440.90161,550.80617 c -1.58375,0.0675 -3.0675,0.075 -4.54125,0.20875 -1.90875,0.17375 -3.3725,1.125 -4.2725,2.835 -0.46625,0.88625 -0.90625,1.79875 -1.2275,2.74375 -0.64875,1.905 -1.1725,3.84375 -1.3325,5.86875 -0.12625,1.6 0.34125,2.455 1.795,2.65375 1.1175,0.15375 2.2725,0.12 3.40375,0.0488 0.5825,-0.0375 1.1925,-0.2575 1.71125,-0.54125 1.01875,-0.555 1.335,-1.6175 1.6125,-2.645 0.53125,-1.9775 1.01,-3.96875 1.51375,-5.95375 0.43,-1.69 0.86625,-3.37875 1.3375,-5.21875 m -3.725,14.51375 c -0.51125,0.63625 -1.025,1.27 -1.5325,1.9075 -0.46,0.57875 -1.0575,0.94375 -1.7875,1.0025 -1.51875,0.12 -3.03375,0.1575 -4.54,-0.19375 -2.12125,-0.495 -3.125,-1.63375 -3.285,-3.78625 -0.1625,-2.185 0.36375,-4.26875 0.94125,-6.3375 0.64875,-2.3275 1.38875,-4.6275 2.8825,-6.585 1.56625,-2.05125 3.64875,-3.1925 6.23125,-3.305 2.15,-0.0937 4.30375,-0.095 6.455,-0.12625 0.32125,-0.005 0.65,0.0125 0.9625,0.0788 1.07625,0.22875 1.37625,0.7375 1.1075,1.815 -1.6525,6.61125 -3.30125,13.2225 -4.96125,19.83125 -0.13375,0.5325 -0.33,1.05 -0.525,1.5625 -0.7725,2.03875 -2.19,3.3 -4.395,3.5625 -2.9425,0.35 -5.89,0.36375 -8.8325,0.0225 -1.2175,-0.14 -1.60125,-0.78625 -1.305,-1.95 0.155,-0.6075 0.29625,-1.2175 0.45,-1.825 0.0825,-0.32125 0.35625,-0.52375 0.5375,-0.2075 0.41125,0.71875 1.07375,0.9 1.77625,0.95375 2.2025,0.17125 4.41,0.26 6.5975,-0.16125 1.1275,-0.2175 1.87375,-0.9025 2.18625,-2.0075 0.39375,-1.39875 0.7525,-2.8075 1.12625,-4.2125 -0.03,-0.0125 -0.06,-0.0263 -0.09,-0.0387"
       inkscape:connector-curvature="0" />
    <path
       id="path3621"
       style="fill:#e73c35;fill-opacity:1;fill-rule:nonzero;stroke:none"
       d="m 396.89285,566.14229 c 0.002,-0.0263 0.006,-0.0512 0.009,-0.0775 0.22875,0 0.4575,0.005 0.685,-10e-4 2.03875,-0.0462 3.4725,-0.95875 4.15125,-2.92625 0.4325,-1.25375 0.90375,-2.49875 1.245,-3.77875 0.4825,-1.81125 0.915,-3.64 1.27,-5.48 0.32875,-1.71125 -0.42875,-2.84125 -2.13125,-3.055 -1.1325,-0.14125 -2.3225,-0.0962 -3.45125,0.0875 -1.24625,0.2025 -2.2425,0.9325 -2.75125,2.16 -1.3475,3.2525 -2.34,6.6125 -2.89,10.09125 -0.2275,1.44125 0.4125,2.33375 1.8425,2.68125 0.65875,0.16 1.34625,0.2025 2.02125,0.29875 m 4.08995,-18.7138 c 1.195,0.19 2.41375,0.28875 3.58125,0.58875 2.135,0.54875 3.37875,2.12625 3.265,4.34125 -0.0862,1.675 -0.40625,3.3525 -0.77125,4.995 -0.5425,2.4425 -1.2025,4.86125 -2.26125,7.14625 -1.12375,2.425 -2.90375,4.065 -5.57625,4.5925 -2.2325,0.44 -4.4675,0.48375 -6.64,-0.295 -1.9175,-0.68875 -2.9,-2.10125 -3.0175,-4.1425 -0.10625,-1.87625 0.36625,-3.65625 0.80875,-5.44625 0.6625,-2.6775 1.5325,-5.275 2.81625,-7.73 1.22875,-2.355 3.21875,-3.5025 5.78125,-3.7925 0.66125,-0.0738 1.3275,-0.10375 1.99125,-0.155 0.007,-0.0337 0.015,-0.0687 0.0225,-0.1025"
       inkscape:connector-curvature="0" />
    <path
       id="path3623"
       style="fill:#e73c35;fill-opacity:1;fill-rule:nonzero;stroke:none"
       d="m 410.05561,548.3768 c -0.03,-0.36375 0.13,-0.49875 0.5,-0.49125 1.02875,0.02 2.0575,-0.002 3.08625,0.0163 1.175,0.02 1.53375,0.5025 1.26125,1.64375 -0.055,0.2325 -0.105,0.4675 -0.1675,0.74875 0.37125,-0.3525 0.7325,-0.6375 1.02125,-0.9825 0.8775,-1.04625 1.95,-1.70875 3.34125,-1.69375 1.36375,0.0137 2.7525,-0.055 4.08375,0.18125 2.185,0.3875 3.14375,1.87875 2.68125,4.04125 -0.5425,2.5425 -1.195,5.0625 -1.81375,7.5875 -0.57,2.32125 -1.16375,4.63625 -1.73625,6.9575 -0.31,1.25625 -0.095,1.67625 1.09125,2.1775 -0.0475,0.1525 -0.095,0.30875 -0.1475,0.48125 -1.18,0 -2.3425,0.0337 -3.50125,-0.009 -1.1325,-0.0425 -1.45875,-0.4975 -1.18375,-1.60375 1.0825,-4.365 2.185,-8.725 3.2675,-13.09 0.12875,-0.515 0.205,-1.045 0.26875,-1.5725 0.13125,-1.08375 -0.30875,-1.7825 -1.3925,-1.88875 -1.16,-0.1125 -2.355,-0.13875 -3.5075,0.01 -1.69125,0.21875 -2.83875,1.2375 -3.3,2.90375 -0.6275,2.2675 -1.21625,4.545 -1.79625,6.825 -0.4925,1.93 -0.94875,3.87 -1.42125,5.805 -0.009,0.0375 -0.0238,0.0725 -0.0312,0.11 -0.23125,1.195 -0.0363,1.5625 1.08125,2.02375 0.015,0.38 -0.1575,0.51125 -0.54625,0.50125 -0.99,-0.0237 -1.98125,0 -2.97125,-0.01 -1.145,-0.0125 -1.57,-0.53875 -1.30125,-1.6325 1.35625,-5.51 2.72125,-11.0175 4.0825,-16.525 0.0325,-0.13 0.0625,-0.25875 0.09,-0.38875 0.28,-1.3 0.1275,-1.6125 -1.03875,-2.12625"
       inkscape:connector-curvature="0" />
    <path
       id="path3625"
       style="fill:#e73c35;fill-opacity:1;fill-rule:nonzero;stroke:none"
       d="m 379.15485,548.40192 c -0.0462,-0.41375 0.12125,-0.5275 0.49,-0.51875 1.02875,0.025 2.0575,-0.002 3.08625,0.0188 1.07125,0.0225 1.46,0.4325 1.2325,1.45625 -0.47,2.11 -1.00875,4.205 -1.53,6.30375 -0.86875,3.5 -1.745,6.99625 -2.61625,10.495 -0.0412,0.16625 -0.0687,0.335 -0.0925,0.50375 -0.175,1.215 -0.04,1.45 1.08125,1.885 0.006,0.3775 -0.155,0.52625 -0.5525,0.515 -0.9325,-0.0275 -1.86625,-0.004 -2.8,-0.0112 -1.32875,-0.01 -1.715,-0.50875 -1.40125,-1.7925 0.04,-0.165 0.0675,-0.3325 0.006,-0.5975 -0.14125,0.17375 -0.29875,0.33875 -0.42125,0.525 -1.0175,1.5325 -2.50625,2.13625 -4.28,2.1925 -1.3125,0.0412 -2.63375,0.10625 -3.88125,-0.40875 -1.90125,-0.78625 -2.78,-2.4225 -2.29375,-4.49125 0.825,-3.50875 1.73625,-6.99875 2.59875,-10.49875 0.3175,-1.29 0.62375,-2.5825 0.88625,-3.88375 0.2,-0.99375 -0.0563,-1.35375 -1.09875,-1.6875 0.0263,-0.1525 0.0537,-0.31375 0.085,-0.5025 1.23375,0 2.4525,-0.0337 3.66875,0.0113 0.92125,0.035 1.27,0.59125 1.0375,1.5425 -0.715,2.91 -1.44,5.8175 -2.1575,8.7275 -0.45,1.825 -0.89875,3.64875 -1.3375,5.47625 -0.32,1.335 0.19,2.1425 1.555,2.3825 1.1925,0.20875 2.385,0.15125 3.56375,-0.16 1.865,-0.49125 2.765,-1.88875 3.23375,-3.585 0.77875,-2.8175 1.46375,-5.66125 2.17625,-8.49625 0.29625,-1.17875 0.5925,-2.35875 0.835,-3.54875 0.23,-1.1275 0.002,-1.47375 -1.07375,-1.8525"
       inkscape:connector-curvature="0" />
    <path
       id="path3627"
       style="fill:#e73c35;fill-opacity:1;fill-rule:nonzero;stroke:none"
       d="m 348.60098,564.51917 c 0.1,0.735 0.65875,1.02625 1.32125,1.04625 2.10875,0.0612 4.2225,0.1375 6.33,0.0775 2.055,-0.0588 3.28375,-1.26 3.74125,-3.22 0.2575,-1.1025 0.505,-2.22875 0.55625,-3.3525 0.0612,-1.35375 -0.5325,-2.04625 -1.81875,-2.48625 -1.59625,-0.545 -3.21375,-1.03625 -4.79375,-1.625 -1.2925,-0.48125 -2.42625,-1.215 -2.94125,-2.59375 -0.38375,-1.025 -0.35,-2.085 -0.1875,-3.1525 0.245,-1.61125 0.66,-3.15875 1.59375,-4.525 1.08875,-1.59375 2.6025,-2.5175 4.52125,-2.61125 2.45125,-0.11875 4.90875,-0.1225 7.36375,-0.17125 0.10875,-0.003 0.2175,0.0337 0.36125,0.0575 -0.155,0.59375 -0.30125,1.16125 -0.45,1.7275 -0.29375,1.11375 -0.545,1.3225 -1.70875,1.33875 -1.21875,0.0175 -2.43875,-0.005 -3.6575,0.015 -0.58875,0.01 -1.18,0.05 -1.76375,0.12375 -1.4725,0.18625 -2.20625,1.1925 -2.5525,2.5 -0.21125,0.80125 -0.28875,1.64625 -0.34875,2.47625 -0.0563,0.79375 0.39375,1.355 1.10125,1.64 1.035,0.4175 2.0975,0.77 3.15,1.14375 0.75,0.26625 1.505,0.52125 2.25625,0.78375 2.17625,0.76 3.3975,2.295 3.45625,4.5925 0.0812,3.20875 -0.67875,6.1825 -2.88625,8.6425 -1.205,1.34375 -2.81125,1.89125 -4.5375,1.96875 -2.58625,0.115 -5.1775,0.095 -7.76625,0.13125 -0.0763,0.001 -0.1525,-0.005 -0.22875,-0.0125 -1.33,-0.12625 -1.68875,-0.62875 -1.38,-1.94 0.165,-0.7025 0.36625,-1.3975 0.4975,-2.105 0.085,-0.455 0.26875,-0.64 0.77125,-0.47"
       inkscape:connector-curvature="0" />
    <path
       id="path3629"
       style="fill:#e73c35;fill-opacity:1;fill-rule:nonzero;stroke:none"
       d="m 386.9106,542.31467 c 0.26875,-0.1825 0.43625,-0.39375 0.6075,-0.39625 1.10375,-0.0213 2.21,-0.0287 3.3125,0.0225 1.0325,0.0475 1.3375,0.5 1.08625,1.51 -1.67875,6.75875 -3.36125,13.51625 -5.04125,20.275 -0.22,0.88375 -0.44125,1.76875 -0.6525,2.655 -0.30625,1.2875 -0.11625,1.675 1.05125,2.185 -0.001,0.33375 -0.125,0.5 -0.50375,0.4925 -1.0475,-0.0213 -2.09625,0.005 -3.14375,-0.0125 -1.0625,-0.0188 -1.43125,-0.5125 -1.175,-1.5475 1.855,-7.4975 3.7125,-14.995 5.56875,-22.4925 0.0412,-0.165 0.0713,-0.33375 0.10625,-0.50125 0.27,-1.305 0.145,-1.56375 -1.21625,-2.19"
       inkscape:connector-curvature="0" />
    <path
       id="path3631"
       style="fill:#e73c35;fill-opacity:1;fill-rule:nonzero;stroke:none"
       d="m 349.32023,550.74004 c 0.275,-8.74375 6.6425,-10.35875 6.6425,-10.35875 0,0 -6.1925,-0.82625 -7.225,-6.54125 -1.03375,-5.715 5.0325,-11.3675 12.66875,-15.435 8.0225,-4.27125 36.94375,-12.23 44.42375,-13.99375 2.9875,-0.70375 15.37875,-3.525 23.3625,-4.37625 10.33,-1.1025 20.82125,-1.79 20.82125,-1.79 0,0 -10.465,0.4125 -21.27375,1.44625 -10.81,1.0325 -24.07625,3.82875 -28.2075,4.58625 -4.13,0.7575 -26.66625,5.87875 -29.5575,6.4975 -2.89125,0.62 -6.81625,1.1025 -10.465,0.345 -3.64875,-0.7575 -11.14,-4.5075 -14.92625,-4.7825 -3.78625,-0.275 -5.7975,0.51375 -10.61625,1.615 -4.82,1.10125 -6.5025,-0.34 -8.19375,-2.41 -1.3275,-1.625 -2.34,-7.98625 -3.7175,-11.29125 -1.3775,-3.30375 -4.40625,-4.54375 -7.0225,-4.54375 -2.61625,0 -6.92875,2.48375 -9.65875,4.275 -1.5125,0.99125 -3.54625,2.48125 -5.48875,3.965 -1.795,1.37125 -0.7925,4.9825 1.9975,4.56625 2.96625,-0.4425 10.97125,-2.05625 12.03,-2.4775 1.1,-0.4375 0.36625,-1.89 0.36625,-1.89 0,0 0.0375,0.8225 -1.41125,1.26 -1.715,0.5175 -2.56625,-2.82125 -0.75125,-4.22625 2.7325,-2.115 5.0775,0.735 6.03,3.67125 0.95125,2.935 1.8925,11.7175 4.91875,14.995 4.4,4.765 23.42125,7.75375 23.56125,17.76875 0.17375,12.5525 1.6925,19.125 1.6925,19.125"
       inkscape:connector-curvature="0" />
  </g>
</svg>
