<?xml version="1.0" encoding="UTF-8" standalone="no"?>
<!-- Created with Inkscape (http://www.inkscape.org/) -->

<svg
   xmlns:dc="http://purl.org/dc/elements/1.1/"
   xmlns:cc="http://creativecommons.org/ns#"
   xmlns:rdf="http://www.w3.org/1999/02/22-rdf-syntax-ns#"
   xmlns:svg="http://www.w3.org/2000/svg"
   xmlns="http://www.w3.org/2000/svg"
   xmlns:sodipodi="http://sodipodi.sourceforge.net/DTD/sodipodi-0.dtd"
   xmlns:inkscape="http://www.inkscape.org/namespaces/inkscape"
   width="170.02795"
   height="81.032501"
   id="svg3644"
   version="1.1"
   inkscape:version="0.48.4 r9939"
   sodipodi:docname="New document 19">
  <defs
     id="defs3646" />
  <sodipodi:namedview
     id="base"
     pagecolor="#ffffff"
     bordercolor="#666666"
     borderopacity="1.0"
     inkscape:pageopacity="0.0"
     inkscape:pageshadow="2"
     inkscape:zoom="3.959798"
     inkscape:cx="175.59552"
     inkscape:cy="-8.5128299"
     inkscape:document-units="px"
     inkscape:current-layer="layer1"
     showgrid="false"
     fit-margin-top="10"
     fit-margin-left="10"
     fit-margin-right="10"
     fit-margin-bottom="10"
     inkscape:window-width="1855"
     inkscape:window-height="1056"
     inkscape:window-x="65"
     inkscape:window-y="24"
     inkscape:window-maximized="1" />
  <metadata
     id="metadata3649">
    <rdf:RDF>
      <cc:Work
         rdf:about="">
        <dc:format>image/svg+xml</dc:format>
        <dc:type
           rdf:resource="http://purl.org/dc/dcmitype/StillImage" />
        <dc:title></dc:title>
      </cc:Work>
    </rdf:RDF>
  </metadata>
  <g
     inkscape:label="Layer 1"
     inkscape:groupmode="layer"
     id="layer1"
     transform="translate(-289.98603,-491.84593)">
    <path
       inkscape:connector-curvature="0"
       d="m 349.32023,562.87843 c 0.275,-8.74375 6.6425,-10.3575 6.6425,-10.3575 0,0 -6.1925,-0.8275 -7.225,-6.5425 -1.03375,-5.715 5.0325,-11.3675 12.66875,-15.435 8.0225,-4.27125 36.94375,-12.23 44.42375,-13.99375 2.9875,-0.70375 15.37875,-3.525 23.3625,-4.37625 10.33,-1.1025 20.82125,-1.79 20.82125,-1.79 0,0 -10.465,0.4125 -21.27375,1.44625 -10.81,1.0325 -24.07625,3.82875 -28.2075,4.58625 -4.13,0.7575 -26.66625,5.87875 -29.5575,6.4975 -2.89125,0.62 -6.81625,1.1025 -10.465,0.345 -3.64875,-0.7575 -11.14,-4.5075 -14.92625,-4.7825 -3.78625,-0.275 -5.7975,0.51375 -10.61625,1.615 -4.82,1.10125 -6.5025,-0.34 -8.19375,-2.41 -1.3275,-1.62375 -2.34,-7.98625 -3.7175,-11.29125 -1.3775,-3.30375 -4.40625,-4.54375 -7.0225,-4.54375 -2.61625,0 -6.92875,2.48375 -9.65875,4.275 -1.5125,0.99125 -3.54625,2.48125 -5.48875,3.965 -1.795,1.37125 -0.7925,4.9825 1.9975,4.56625 2.96625,-0.4425 10.97125,-2.05625 12.03,-2.4775 1.1,-0.4375 0.36625,-1.89 0.36625,-1.89 0,0 0.0375,0.8225 -1.41125,1.26 -1.715,0.5175 -2.56625,-2.82125 -0.75125,-4.22625 2.7325,-2.115 5.0775,0.735 6.03,3.67125 0.95125,2.935 1.8925,11.7175 4.91875,14.995 4.4,4.765 23.42125,7.75375 23.56125,17.77 0.17375,12.55125 1.6925,19.12375 1.6925,19.12375"
       style="fill:#2b2b2a;fill-opacity:1;fill-rule:nonzero;stroke:none"
       id="path222" />
  </g>
</svg>
